<svg xmlns="http://www.w3.org/2000/svg" viewBox="0 0 1200 900" width="1200" height="900" role="img" aria-label="Event placeholder">
  <defs>
    <linearGradient id="s06bg" x1="0" y1="0" x2="1" y2="1">
      <stop offset="0" stop-color="#33103c"/>
      <stop offset="0.55" stop-color="#150d1c"/>
      <stop offset="1" stop-color="#f2c14e" stop-opacity=".55"/>
    </linearGradient>
    <radialGradient id="s06glow" cx="30%" cy="24%" r="70%">
      <stop offset="0" stop-color="#c9a35e" stop-opacity=".28"/>
      <stop offset="1" stop-color="#c9a35e" stop-opacity="0"/>
    </radialGradient>
  </defs>

  <rect width="1200" height="900" fill="url(#s06bg)"/>
  <rect width="1200" height="900" fill="url(#s06glow)"/>
  <circle cx="193" cy="108" r="20" fill="#f2c14e" opacity="0.09"/><circle cx="765" cy="488" r="24" fill="#c9a35e" opacity="0.05"/><circle cx="793" cy="479" r="10" fill="#c9a35e" opacity="0.17"/><circle cx="1125" cy="15" r="6" fill="#f2c14e" opacity="0.13"/><circle cx="353" cy="300" r="8" fill="#c9a35e" opacity="0.09"/><circle cx="573" cy="174" r="38" fill="#c9a35e" opacity="0.05"/><circle cx="489" cy="643" r="26" fill="#f2c14e" opacity="0.17"/><circle cx="949" cy="502" r="24" fill="#c9a35e" opacity="0.13"/><circle cx="561" cy="10" r="36" fill="#c9a35e" opacity="0.09"/><circle cx="893" cy="537" r="20" fill="#f2c14e" opacity="0.05"/><circle cx="1161" cy="171" r="32" fill="#c9a35e" opacity="0.17"/><circle cx="725" cy="237" r="38" fill="#c9a35e" opacity="0.13"/><circle cx="641" cy="47" r="36" fill="#f2c14e" opacity="0.09"/><circle cx="13" cy="479" r="14" fill="#c9a35e" opacity="0.05"/><circle cx="137" cy="594" r="10" fill="#c9a35e" opacity="0.17"/><circle cx="1157" cy="548" r="10" fill="#f2c14e" opacity="0.13"/><circle cx="145" cy="439" r="24" fill="#c9a35e" opacity="0.09"/><circle cx="301" cy="424" r="12" fill="#c9a35e" opacity="0.05"/><circle cx="873" cy="113" r="18" fill="#f2c14e" opacity="0.17"/><circle cx="437" cy="142" r="12" fill="#c9a35e" opacity="0.13"/><circle cx="353" cy="479" r="14" fill="#c9a35e" opacity="0.09"/><circle cx="317" cy="15" r="18" fill="#f2c14e" opacity="0.05"/><circle cx="1193" cy="591" r="18" fill="#c9a35e" opacity="0.17"/><circle cx="341" cy="269" r="24" fill="#c9a35e" opacity="0.13"/><circle cx="913" cy="430" r="20" fill="#f2c14e" opacity="0.09"/><circle cx="349" cy="76" r="28" fill="#c9a35e" opacity="0.05"/>
  <path d="M0,108 Q600,198 1200,108" fill="none" stroke="#c9a35e" stroke-width="2" opacity=".35"/><circle cx="0" cy="118" r="7" fill="#f0e2c4" opacity=".65"/><circle cx="120" cy="134" r="7" fill="#f0e2c4" opacity=".65"/><circle cx="240" cy="147" r="7" fill="#f0e2c4" opacity=".65"/><circle cx="360" cy="156" r="7" fill="#f0e2c4" opacity=".65"/><circle cx="480" cy="161" r="7" fill="#f0e2c4" opacity=".65"/><circle cx="600" cy="163" r="7" fill="#f0e2c4" opacity=".65"/><circle cx="720" cy="161" r="7" fill="#f0e2c4" opacity=".65"/><circle cx="840" cy="156" r="7" fill="#f0e2c4" opacity=".65"/><circle cx="960" cy="147" r="7" fill="#f0e2c4" opacity=".65"/><circle cx="1080" cy="134" r="7" fill="#f0e2c4" opacity=".65"/><circle cx="1200" cy="118" r="7" fill="#f0e2c4" opacity=".65"/><path d="M0,198 Q600,288 1200,198" fill="none" stroke="#c9a35e" stroke-width="2" opacity=".35"/><circle cx="0" cy="208" r="7" fill="#f0e2c4" opacity=".65"/><circle cx="120" cy="224" r="7" fill="#f0e2c4" opacity=".65"/><circle cx="240" cy="237" r="7" fill="#f0e2c4" opacity=".65"/><circle cx="360" cy="246" r="7" fill="#f0e2c4" opacity=".65"/><circle cx="480" cy="251" r="7" fill="#f0e2c4" opacity=".65"/><circle cx="600" cy="253" r="7" fill="#f0e2c4" opacity=".65"/><circle cx="720" cy="251" r="7" fill="#f0e2c4" opacity=".65"/><circle cx="840" cy="246" r="7" fill="#f0e2c4" opacity=".65"/><circle cx="960" cy="237" r="7" fill="#f0e2c4" opacity=".65"/><circle cx="1080" cy="224" r="7" fill="#f0e2c4" opacity=".65"/><circle cx="1200" cy="208" r="7" fill="#f0e2c4" opacity=".65"/><path d="M0,288 Q600,378 1200,288" fill="none" stroke="#c9a35e" stroke-width="2" opacity=".35"/><circle cx="0" cy="298" r="7" fill="#f0e2c4" opacity=".65"/><circle cx="120" cy="314" r="7" fill="#f0e2c4" opacity=".65"/><circle cx="240" cy="327" r="7" fill="#f0e2c4" opacity=".65"/><circle cx="360" cy="336" r="7" fill="#f0e2c4" opacity=".65"/><circle cx="480" cy="341" r="7" fill="#f0e2c4" opacity=".65"/><circle cx="600" cy="343" r="7" fill="#f0e2c4" opacity=".65"/><circle cx="720" cy="341" r="7" fill="#f0e2c4" opacity=".65"/><circle cx="840" cy="336" r="7" fill="#f0e2c4" opacity=".65"/><circle cx="960" cy="327" r="7" fill="#f0e2c4" opacity=".65"/><circle cx="1080" cy="314" r="7" fill="#f0e2c4" opacity=".65"/><circle cx="1200" cy="298" r="7" fill="#f0e2c4" opacity=".65"/><rect x="0" y="702" width="1200" height="198" fill="#150d1c" opacity=".75"/>
  <rect width="1200" height="900" fill="none" stroke="#c9a35e" stroke-width="2" opacity=".18"/>
  <text x="600" y="866" text-anchor="middle" font-family="Georgia, serif" font-size="20"
        letter-spacing="6" fill="#f0e2c4" opacity=".5">PLACEHOLDER PHOTO</text>
</svg>
